PathFileType	4	(x/y/z)	S05_PSF_T02
DataRate	CameraRate	NumFrames	NumMarkers	Units	OrigDataRate	OrigDataStartFrame	OrigNumFrames
240	240	6	50	mm	240	387	442
Frame#	Time	Sternum			R.Acromium			L.Acromium			Top.Head			R.ASIS			L.ASIS			R.PSIS			L.PSIS			R.Great.Tro			L.Great.Tro			R.Iliac.Crest			L.Iliac.Crest			V.Sacral			R.Thigh.Upper.Post			R.Thigh.Lower.Ant			R.Thigh.Lower.Post			R.Thigh.Upper.Ant			R.Knee.Lat			R.Knee.Med			R.Shank.Upper.Post			R.Shank.Lower.Ant			R.Shank.Lower.Post			R.Shank.Upper.Ant			R.Ankle.Lat			R.Ankle.Med			R.Heel.Upper			R.Heel.Med			R.Heel.Lat			R.Toe.Lat			R.Toe.Med			R.Toe.Tip			L.Thigh.Upper.Post			L.Thigh.Lower.Ant			L.Thigh.Lower.Post			L.Thigh.Upper.Ant			L.Knee.Lat			L.Shank.Upper.Post			L.Shank.Lower.Ant			L.Shank.Lower.Post			L.Shank.Upper.Ant			L.Ankle.Lat			L.Ankle.Med			L.Heel.Upper			L.Heel.Med			L.Heel.Lat			L.Toe.Lat			L.Toe.Med			L.Toe.Tip			Cervical.Spine			Back			
		X1	Y1	Z1	X2	Y2	Z2	X3	Y3	Z3	X4	Y4	Z4	X5	Y5	Z5	X6	Y6	Z6	X7	Y7	Z7	X8	Y8	Z8	X9	Y9	Z9	X10	Y10	Z10	X11	Y11	Z11	X12	Y12	Z12	X13	Y13	Z13	X14	Y14	Z14	X15	Y15	Z15	X16	Y16	Z16	X17	Y17	Z17	X18	Y18	Z18	X19	Y19	Z19	X20	Y20	Z20	X21	Y21	Z21	X22	Y22	Z22	X23	Y23	Z23	X24	Y24	Z24	X25	Y25	Z25	X26	Y26	Z26	X27	Y27	Z27	X28	Y28	Z28	X29	Y29	Z29	X30	Y30	Z30	X31	Y31	Z31	X32	Y32	Z32	X33	Y33	Z33	X34	Y34	Z34	X35	Y35	Z35	X36	Y36	Z36	X37	Y37	Z37	X38	Y38	Z38	X39	Y39	Z39	X40	Y40	Z40	X41	Y41	Z41	X42	Y42	Z42	X43	Y43	Z43	X44	Y44	Z44	X45	Y45	Z45	X46	Y46	Z46	X47	Y47	Z47	X48	Y48	Z48	X49	Y49	Z49	X50	Y50	Z50	

387	1.6083	558.5	1260.6	257.33	476.79	1525.7	405.82	466.54	1537.4	78.189	479.37	1832.8	225.18	488.45	1014.6	388.02	486.98	1018.3	137.93	287.45	1033.2	307.83	287.7	1040.2	216.69	415.09	932.14	456.36	388.35	943.11	69.777	399.34	1100.8	428.24	399.51	1095.8	92.897	274.37	1001.1	273.24	535.5	736.21	456.39	607.72	686.88	403.22	554.74	649.38	436.58	583.86	771.66	422.16	576.6	554.23	412.82	593.46	543.64	281.64	542.48	306.59	395.23	614.3	254.48	406.25	558.97	232.85	381.13	598.38	329.6	418.59	629.36	144.79	390.17	642.3	174.67	304.52	584.9	75.271	321.06	609.44	51.602	293.93	597.78	48.722	357.83	747.82	87.289	432.77	789.94	118.87	323.41	830.07	159.97	376.78	357.95	709.02	81.72	428.27	626.21	103.96	356.45	614.82	101.71	436.51	714.66	82.506	352.28	520.81	112.47	260.06	329.89	122.63	318.98	263.3	123.86	250.05	259.81	143.4	325.36	332.65	108.95	264.36	115.49	154.61	305.93	132.81	237.61	205.12	70.989	213.31	219.88	45.794	244.76	205.87	42.974	185.02	383.88	35.655	117.81	414.76	52.875	235.06	474.56	59.393	176.26	423.77	1572	246.45	299.96	1303	252.21
388	1.6125	563.76	1259.9	257.42	481.92	1524.9	406.06	471.76	1536.7	78.478	484.62	1832	225.58	494.02	1013.7	387.96	492.06	1017.7	137.91	292.89	1032.6	308.21	292.98	1039.8	217.12	420.65	931.09	456.29	393	942.85	69.82	404.89	1099.9	428.38	404.57	1095.3	93.09	279.68	1000.6	273.56	540.1	734.58	455.89	611.91	684.99	402.43	558.94	647.68	436	588.45	769.85	421.47	581.28	552.91	412	597.82	542.33	280.49	553.18	304.61	395.33	626.41	254.49	406.4	571.58	231.27	381.42	608.51	329.21	418.51	644.66	144.95	390.63	656.56	174.92	304.94	601.84	74.104	321.83	626.92	51.011	294.68	615.46	47.981	358.64	764.75	90.562	433.12	805.79	122.97	323.61	845.06	165.21	376.8	361.08	709.04	81.743	430.92	625.8	104	359.05	614.86	101.76	439.69	714.2	82.415	354.1	520.8	112.57	260.99	330.26	122.87	319.62	263.43	123.88	250.73	260.23	143.64	326.25	332.75	108.99	264.59	115.68	154.76	306.33	132.86	237.7	205.26	71.147	213.44	219.99	45.892	244.87	205.95	43.164	185.13	383.91	35.603	117.78	414.9	52.76	235.03	474.69	59.127	176.21	428.94	1571.3	246.68	305.2	1302.2	252.37
389	1.6167	569.03	1259.1	257.53	487.05	1524.1	406.32	476.98	1536.1	78.79	489.88	1831.3	226.01	499.61	1012.8	387.91	497.17	1017.1	137.9	298.34	1031.9	308.6	298.27	1039.3	217.55	426.25	929.98	456.22	397.68	942.55	69.861	410.45	1099	428.52	409.65	1094.7	93.291	285.03	999.98	273.89	544.74	732.9	455.4	616.11	683.03	401.64	563.14	645.94	435.44	593.06	767.98	420.77	585.94	551.54	411.2	602.15	540.97	279.35	563.72	302.75	395.44	638.31	254.61	406.54	583.98	229.85	381.73	618.48	328.89	418.42	659.66	145.28	391.07	670.54	175.3	305.35	618.46	73.179	322.6	644.06	50.657	295.41	632.81	47.486	359.43	781.3	93.956	433.43	821.25	127.14	323.74	859.68	170.47	376.75	364.26	709.02	81.77	433.61	625.38	104.05	361.71	614.87	101.83	442.91	713.72	82.331	355.98	520.78	112.67	261.96	330.64	123.12	320.28	263.55	123.91	251.45	260.65	143.88	327.19	332.85	109.04	264.83	115.87	154.91	306.74	132.91	237.8	205.4	71.308	213.59	220.11	45.994	244.99	206.03	43.358	185.25	383.94	35.554	117.76	415.04	52.639	235.01	474.82	58.858	176.16	434.1	1570.5	246.94	310.44	1301.4	252.55
390	1.6208	574.31	1258.4	257.65	492.19	1523.2	406.6	482.19	1535.4	79.126	495.14	1830.4	226.46	505.21	1011.8	387.86	502.3	1016.4	137.89	303.8	1031.2	308.99	303.58	1038.8	217.98	431.9	928.83	456.14	402.39	942.22	69.9	416.02	1098	428.67	414.74	1094.2	93.5	290.39	999.33	274.23	549.41	731.19	454.93	620.32	681.02	400.85	567.37	644.15	434.9	597.7	766.07	420.06	590.61	550.15	410.42	606.45	539.56	278.22	574.11	301.01	395.56	649.99	254.83	406.67	596.17	228.58	382.04	628.29	328.65	418.33	674.35	145.75	391.48	684.21	175.81	305.74	634.73	72.477	323.34	660.81	50.519	296.11	649.79	47.213	360.19	797.43	97.435	433.68	836.28	131.36	323.81	873.9	175.71	376.64	367.49	708.99	81.801	436.35	624.94	104.12	364.43	614.86	101.9	446.18	713.22	82.255	357.92	520.74	112.78	262.98	331.01	123.37	320.98	263.66	123.94	252.21	261.07	144.13	328.17	332.94	109.09	265.08	116.07	155.07	307.17	132.96	237.91	205.55	71.471	213.76	220.23	46.102	245.12	206.12	43.556	185.39	383.97	35.509	117.73	415.19	52.514	234.99	474.95	58.585	176.11	439.26	1569.6	247.21	315.7	1300.5	252.75
391	1.625	579.6	1257.6	257.79	497.33	1522.3	406.9	487.4	1534.7	79.487	500.41	1829.6	226.94	510.82	1010.8	387.81	507.45	1015.7	137.88	309.28	1030.4	309.39	308.9	1038.2	218.43	437.59	927.64	456.06	407.13	941.86	69.936	421.61	1097	428.82	419.83	1093.5	93.716	295.77	998.62	274.57	554.14	729.45	454.46	624.57	678.98	400.05	571.65	642.34	434.38	602.39	764.13	419.35	595.31	548.73	409.67	610.75	538.11	277.1	584.32	299.38	395.69	661.43	255.14	406.79	608.11	227.45	382.35	637.92	328.46	418.24	688.69	146.36	391.86	697.55	176.42	306.11	650.6	71.976	324.05	677.14	50.57	296.76	666.35	47.139	360.92	813.12	100.96	433.89	850.86	135.57	323.8	887.71	180.89	376.46	370.79	708.93	81.837	439.15	624.48	104.19	367.21	614.83	101.97	449.5	712.7	82.187	359.93	520.68	112.9	264.04	331.38	123.62	321.72	263.77	123.99	253	261.5	144.39	329.19	333.03	109.16	265.34	116.28	155.24	307.61	133.01	238.03	205.71	71.638	213.94	220.36	46.215	245.27	206.21	43.759	185.54	383.99	35.467	117.71	415.33	52.382	234.98	475.09	58.306	176.07	444.42	1568.8	247.51	320.96	1299.6	252.97
392	1.6292	584.89	1256.8	257.95	502.48	1521.4	407.22	492.6	1534	79.872	505.68	1828.7	227.43	516.44	1009.8	387.77	512.62	1015	137.87	314.77	1029.5	309.79	314.24	1037.6	218.87	443.32	926.41	455.97	411.9	941.46	69.969	427.22	1095.9	428.98	424.94	1092.9	93.937	301.17	997.85	274.92	558.94	727.71	454.01	628.87	676.93	399.26	575.99	640.52	433.89	607.13	762.17	418.63	600.05	547.31	408.93	615.06	536.63	276.01	594.34	297.86	395.82	672.61	255.5	406.88	619.8	226.44	382.65	647.38	328.33	418.13	702.65	147.06	392.2	710.52	177.11	306.44	666.04	71.653	324.72	692.99	50.784	297.37	682.45	47.234	361.58	828.34	104.48	434.03	864.97	139.75	323.73	901.08	185.96	376.24	374.15	708.84	81.877	442.01	624	104.26	370.05	614.77	102.05	452.89	712.15	82.127	362.01	520.61	113.02	265.16	331.75	123.89	322.5	263.87	124.05	253.84	261.92	144.65	330.27	333.1	109.23	265.61	116.49	155.43	308.06	133.06	238.17	205.87	71.81	214.13	220.5	46.335	245.42	206.3	43.968	185.7	384.02	35.43	117.7	415.48	52.244	234.97	475.23	58.022	176.02	449.58	1567.9	247.83	326.22	1298.6	253.2
